<?xml version="1.0" encoding="UTF-8"?>
<svg xmlns="http://www.w3.org/2000/svg" xmlns:xlink="http://www.w3.org/1999/xlink" viewBox="0 0 96 96" width="96px" height="96px">
<g id="surface9454493">
<path style=" stroke:none;fill-rule:nonzero;fill:rgb(100%,100%,100%);fill-opacity:1;" d="M 34.40625 15 C 23.753906 15 15 23.742188 15 34.40625 L 15 61.59375 C 15 72.246094 23.742188 81 34.40625 81 L 61.59375 81 C 72.246094 81 81 72.257812 81 61.59375 L 81 34.40625 C 81 23.753906 72.257812 15 61.59375 15 Z M 34.40625 21 L 61.59375 21 C 69.011719 21 75 26.988281 75 34.40625 L 75 61.59375 C 75 69.011719 69.011719 75 61.59375 75 L 34.40625 75 C 26.988281 75 21 69.011719 21 61.59375 L 21 34.40625 C 21 26.988281 26.988281 21 34.40625 21 Z M 65.71875 27.5625 C 64.207031 27.5625 63 28.769531 63 30.28125 C 63 31.792969 64.207031 33 65.71875 33 C 67.230469 33 68.4375 31.792969 68.4375 30.28125 C 68.4375 28.769531 67.230469 27.5625 65.71875 27.5625 Z M 48 30 C 38.097656 30 30 38.097656 30 48 C 30 57.902344 38.097656 66 48 66 C 57.902344 66 66 57.902344 66 48 C 66 38.097656 57.902344 30 48 30 Z M 48 36 C 54.667969 36 60 41.332031 60 48 C 60 54.667969 54.667969 60 48 60 C 41.332031 60 36 54.667969 36 48 C 36 41.332031 41.332031 36 48 36 Z M 48 36 "/>
</g>
</svg>
